<svg xmlns="http://www.w3.org/2000/svg" class="header-svg" height="400px" viewBox="0 0 900 450"
     preserveAspectRatio="none">
    <style type="text/css">
        path:first-child { fill: #4ffbdf; }
        path:nth-child(2) { fill: #41ecd1; }
        path:nth-child(3) { fill: #32dec3; }
        path:nth-child(4) { fill: #20d0b5; }
        path:nth-child(5) { fill: #00c2a8; }
        path:nth-child(6) { fill: #00c2a8; }
    </style>
    <path d="M0 282L15 299.7C30 317.3 60 352.7 90 363.2C120 373.7 150 359.3 180 350.7C210 342 240 339 270 336.8C300 334.7 330 333.3 360 333.2C390 333 420 334 450 326.2C480 318.3 510 301.7 540 302.2C570 302.7 600 320.3 630 333.8C660 347.3 690 356.7 720 355.8C750 355 780 344 810 344C840 344 870 355 885 360.5L900 366L900 0L885 0C870 0 840 0 810 0C780 0 750 0 720 0C690 0 660 0 630 0C600 0 570 0 540 0C510 0 480 0 450 0C420 0 390 0 360 0C330 0 300 0 270 0C240 0 210 0 180 0C150 0 120 0 90 0C60 0 30 0 15 0L0 0Z">
        <animate attributeName="d"
                 values=" M0 282L15 299.7C30 317.3 60 352.7 90 363.2C120 373.7 150 359.3 180 350.7C210 342 240 339 270 336.8C300 334.7 330 333.3 360 333.2C390 333 420 334 450 326.2C480 318.3 510 301.7 540 302.2C570 302.7 600 320.3 630 333.8C660 347.3 690 356.7 720 355.8C750 355 780 344 810 344C840 344 870 355 885 360.5L900 366L900 0L885 0C870 0 840 0 810 0C780 0 750 0 720 0C690 0 660 0 630 0C600 0 570 0 540 0C510 0 480 0 450 0C420 0 390 0 360 0C330 0 300 0 270 0C240 0 210 0 180 0C150 0 120 0 90 0C60 0 30 0 15 0L0 0Z; M0 270L15 285.3C30 300.7 60 331.3 90 337.5C120 343.7 150 325.3 180 310.5C210 295.7 240 284.3 270 288.7C300 293 330 313 360 317.2C390 321.3 420 309.7 450 315.7C480 321.7 510 345.3 540 349.2C570 353 600 337 630 337.5C660 338 690 355 720 356.5C750 358 780 344 810 327.8C840 311.7 870 293.3 885 284.2L900 275L900 0L885 0C870 0 840 0 810 0C780 0 750 0 720 0C690 0 660 0 630 0C600 0 570 0 540 0C510 0 480 0 450 0C420 0 390 0 360 0C330 0 300 0 270 0C240 0 210 0 180 0C150 0 120 0 90 0C60 0 30 0 15 0L0 0Z; M0 304L15 304.2C30 304.3 60 304.7 90 310C120 315.3 150 325.7 180 338C210 350.3 240 364.7 270 355.2C300 345.7 330 312.3 360 308.3C390 304.3 420 329.7 450 344.5C480 359.3 510 363.7 540 354C570 344.3 600 320.7 630 323.3C660 326 690 355 720 359.5C750 364 780 344 810 340.8C840 337.7 870 351.3 885 358.2L900 365L900 0L885 0C870 0 840 0 810 0C780 0 750 0 720 0C690 0 660 0 630 0C600 0 570 0 540 0C510 0 480 0 450 0C420 0 390 0 360 0C330 0 300 0 270 0C240 0 210 0 180 0C150 0 120 0 90 0C60 0 30 0 15 0L0 0Z; M0 367L15 361.5C30 356 60 345 90 341C120 337 150 340 180 344.7C210 349.3 240 355.7 270 345.5C300 335.3 330 308.7 360 300.5C390 292.3 420 302.7 450 310.3C480 318 510 323 540 327C570 331 600 334 630 325.3C660 316.7 690 296.3 720 299.7C750 303 780 330 810 340.3C840 350.7 870 344.3 885 341.2L900 338L900 0L885 0C870 0 840 0 810 0C780 0 750 0 720 0C690 0 660 0 630 0C600 0 570 0 540 0C510 0 480 0 450 0C420 0 390 0 360 0C330 0 300 0 270 0C240 0 210 0 180 0C150 0 120 0 90 0C60 0 30 0 15 0L0 0Z; M0 282L15 299.7C30 317.3 60 352.7 90 363.2C120 373.7 150 359.3 180 350.7C210 342 240 339 270 336.8C300 334.7 330 333.3 360 333.2C390 333 420 334 450 326.2C480 318.3 510 301.7 540 302.2C570 302.7 600 320.3 630 333.8C660 347.3 690 356.7 720 355.8C750 355 780 344 810 344C840 344 870 355 885 360.5L900 366L900 0L885 0C870 0 840 0 810 0C780 0 750 0 720 0C690 0 660 0 630 0C600 0 570 0 540 0C510 0 480 0 450 0C420 0 390 0 360 0C330 0 300 0 270 0C240 0 210 0 180 0C150 0 120 0 90 0C60 0 30 0 15 0L0 0Z "
                 keyTimes="0; 0.25; 0.5; 0.75; 1" calcMode="linear" dur="20s" repeatCount="indefinite"></animate>
    </path>
    <path d="M0 226L15 240.8C30 255.7 60 285.3 90 292C120 298.7 150 282.3 180 280C210 277.7 240 289.3 270 281.8C300 274.3 330 247.7 360 237.8C390 228 420 235 450 242.3C480 249.7 510 257.3 540 257C570 256.7 600 248.3 630 256.7C660 265 690 290 720 297.2C750 304.3 780 293.7 810 290C840 286.3 870 289.7 885 291.3L900 293L900 0L885 0C870 0 840 0 810 0C780 0 750 0 720 0C690 0 660 0 630 0C600 0 570 0 540 0C510 0 480 0 450 0C420 0 390 0 360 0C330 0 300 0 270 0C240 0 210 0 180 0C150 0 120 0 90 0C60 0 30 0 15 0L0 0Z">
        <animate attributeName="d"
                 values=" M0 226L15 240.8C30 255.7 60 285.3 90 292C120 298.7 150 282.3 180 280C210 277.7 240 289.3 270 281.8C300 274.3 330 247.7 360 237.8C390 228 420 235 450 242.3C480 249.7 510 257.3 540 257C570 256.7 600 248.3 630 256.7C660 265 690 290 720 297.2C750 304.3 780 293.7 810 290C840 286.3 870 289.7 885 291.3L900 293L900 0L885 0C870 0 840 0 810 0C780 0 750 0 720 0C690 0 660 0 630 0C600 0 570 0 540 0C510 0 480 0 450 0C420 0 390 0 360 0C330 0 300 0 270 0C240 0 210 0 180 0C150 0 120 0 90 0C60 0 30 0 15 0L0 0Z; M0 219L15 221.5C30 224 60 229 90 242C120 255 150 276 180 278.7C210 281.3 240 265.7 270 252.7C300 239.7 330 229.3 360 235C390 240.7 420 262.3 450 273.2C480 284 510 284 540 288.2C570 292.3 600 300.7 630 291.7C660 282.7 690 256.3 720 250.7C750 245 780 260 810 273.5C840 287 870 299 885 305L900 311L900 0L885 0C870 0 840 0 810 0C780 0 750 0 720 0C690 0 660 0 630 0C600 0 570 0 540 0C510 0 480 0 450 0C420 0 390 0 360 0C330 0 300 0 270 0C240 0 210 0 180 0C150 0 120 0 90 0C60 0 30 0 15 0L0 0Z; M0 213L15 222.7C30 232.3 60 251.7 90 264.2C120 276.7 150 282.3 180 273.2C210 264 240 240 270 235.3C300 230.7 330 245.3 360 258C390 270.7 420 281.3 450 290.5C480 299.7 510 307.3 540 305.2C570 303 600 291 630 287C660 283 690 287 720 287.7C750 288.3 780 285.7 810 282.7C840 279.7 870 276.3 885 274.7L900 273L900 0L885 0C870 0 840 0 810 0C780 0 750 0 720 0C690 0 660 0 630 0C600 0 570 0 540 0C510 0 480 0 450 0C420 0 390 0 360 0C330 0 300 0 270 0C240 0 210 0 180 0C150 0 120 0 90 0C60 0 30 0 15 0L0 0Z; M0 288L15 289.8C30 291.7 60 295.3 90 300.5C120 305.7 150 312.3 180 301.2C210 290 240 261 270 256.3C300 251.7 330 271.3 360 271C390 270.7 420 250.3 450 242.3C480 234.3 510 238.7 540 251.5C570 264.3 600 285.7 630 287.7C660 289.7 690 272.3 720 265.8C750 259.3 780 263.7 810 260.7C840 257.7 870 247.3 885 242.2L900 237L900 0L885 0C870 0 840 0 810 0C780 0 750 0 720 0C690 0 660 0 630 0C600 0 570 0 540 0C510 0 480 0 450 0C420 0 390 0 360 0C330 0 300 0 270 0C240 0 210 0 180 0C150 0 120 0 90 0C60 0 30 0 15 0L0 0Z; M0 226L15 240.8C30 255.7 60 285.3 90 292C120 298.7 150 282.3 180 280C210 277.7 240 289.3 270 281.8C300 274.3 330 247.7 360 237.8C390 228 420 235 450 242.3C480 249.7 510 257.3 540 257C570 256.7 600 248.3 630 256.7C660 265 690 290 720 297.2C750 304.3 780 293.7 810 290C840 286.3 870 289.7 885 291.3L900 293L900 0L885 0C870 0 840 0 810 0C780 0 750 0 720 0C690 0 660 0 630 0C600 0 570 0 540 0C510 0 480 0 450 0C420 0 390 0 360 0C330 0 300 0 270 0C240 0 210 0 180 0C150 0 120 0 90 0C60 0 30 0 15 0L0 0Z "
                 keyTimes="0; 0.25; 0.5; 0.75; 1" calcMode="linear" dur="20s" repeatCount="indefinite"></animate>
    </path>
    <path d="M0 153L15 166.8C30 180.7 60 208.3 90 219.8C120 231.3 150 226.7 180 213.7C210 200.7 240 179.3 270 183.3C300 187.3 330 216.7 360 228.5C390 240.3 420 234.7 450 219.5C480 204.3 510 179.7 540 169.7C570 159.7 600 164.3 630 173C660 181.7 690 194.3 720 206.3C750 218.3 780 229.7 810 223.8C840 218 870 195 885 183.5L900 172L900 0L885 0C870 0 840 0 810 0C780 0 750 0 720 0C690 0 660 0 630 0C600 0 570 0 540 0C510 0 480 0 450 0C420 0 390 0 360 0C330 0 300 0 270 0C240 0 210 0 180 0C150 0 120 0 90 0C60 0 30 0 15 0L0 0Z">
        <animate attributeName="d"
                 values=" M0 153L15 166.8C30 180.7 60 208.3 90 219.8C120 231.3 150 226.7 180 213.7C210 200.7 240 179.3 270 183.3C300 187.3 330 216.7 360 228.5C390 240.3 420 234.7 450 219.5C480 204.3 510 179.7 540 169.7C570 159.7 600 164.3 630 173C660 181.7 690 194.3 720 206.3C750 218.3 780 229.7 810 223.8C840 218 870 195 885 183.5L900 172L900 0L885 0C870 0 840 0 810 0C780 0 750 0 720 0C690 0 660 0 630 0C600 0 570 0 540 0C510 0 480 0 450 0C420 0 390 0 360 0C330 0 300 0 270 0C240 0 210 0 180 0C150 0 120 0 90 0C60 0 30 0 15 0L0 0Z; M0 189L15 196.8C30 204.7 60 220.3 90 221.8C120 223.3 150 210.7 180 212C210 213.3 240 228.7 270 226.2C300 223.7 330 203.3 360 196.3C390 189.3 420 195.7 450 205.5C480 215.3 510 228.7 540 226.7C570 224.7 600 207.3 630 193.7C660 180 690 170 720 169.5C750 169 780 178 810 188C840 198 870 209 885 214.5L900 220L900 0L885 0C870 0 840 0 810 0C780 0 750 0 720 0C690 0 660 0 630 0C600 0 570 0 540 0C510 0 480 0 450 0C420 0 390 0 360 0C330 0 300 0 270 0C240 0 210 0 180 0C150 0 120 0 90 0C60 0 30 0 15 0L0 0Z; M0 244L15 236.2C30 228.3 60 212.7 90 209.5C120 206.3 150 215.7 180 214.5C210 213.3 240 201.7 270 202.5C300 203.3 330 216.7 360 215.2C390 213.7 420 197.3 450 193.7C480 190 510 199 540 205.3C570 211.7 600 215.3 630 207.8C660 200.3 690 181.7 720 180.8C750 180 780 197 810 208.2C840 219.3 870 224.7 885 227.3L900 230L900 0L885 0C870 0 840 0 810 0C780 0 750 0 720 0C690 0 660 0 630 0C600 0 570 0 540 0C510 0 480 0 450 0C420 0 390 0 360 0C330 0 300 0 270 0C240 0 210 0 180 0C150 0 120 0 90 0C60 0 30 0 15 0L0 0Z; M0 219L15 223.2C30 227.3 60 235.7 90 230.8C120 226 150 208 180 201.3C210 194.7 240 199.3 270 194.2C300 189 330 174 360 173.3C390 172.7 420 186.3 450 191.2C480 196 510 192 540 187.7C570 183.3 600 178.7 630 178.3C660 178 690 182 720 193.7C750 205.3 780 224.7 810 223.8C840 223 870 202 885 191.5L900 181L900 0L885 0C870 0 840 0 810 0C780 0 750 0 720 0C690 0 660 0 630 0C600 0 570 0 540 0C510 0 480 0 450 0C420 0 390 0 360 0C330 0 300 0 270 0C240 0 210 0 180 0C150 0 120 0 90 0C60 0 30 0 15 0L0 0Z; M0 153L15 166.8C30 180.7 60 208.3 90 219.8C120 231.3 150 226.7 180 213.7C210 200.7 240 179.3 270 183.3C300 187.3 330 216.7 360 228.5C390 240.3 420 234.7 450 219.5C480 204.3 510 179.7 540 169.7C570 159.7 600 164.3 630 173C660 181.7 690 194.3 720 206.3C750 218.3 780 229.7 810 223.8C840 218 870 195 885 183.5L900 172L900 0L885 0C870 0 840 0 810 0C780 0 750 0 720 0C690 0 660 0 630 0C600 0 570 0 540 0C510 0 480 0 450 0C420 0 390 0 360 0C330 0 300 0 270 0C240 0 210 0 180 0C150 0 120 0 90 0C60 0 30 0 15 0L0 0Z "
                 keyTimes="0; 0.25; 0.5; 0.75; 1" calcMode="linear" dur="20s" repeatCount="indefinite"></animate>
    </path>
    <path d="M0 105L15 106.8C30 108.7 60 112.3 90 118.3C120 124.3 150 132.7 180 132.7C210 132.7 240 124.3 270 118.2C300 112 330 108 360 106.3C390 104.7 420 105.3 450 115.5C480 125.7 510 145.3 540 149.5C570 153.7 600 142.3 630 133.2C660 124 690 117 720 124.8C750 132.7 780 155.3 810 158.7C840 162 870 146 885 138L900 130L900 0L885 0C870 0 840 0 810 0C780 0 750 0 720 0C690 0 660 0 630 0C600 0 570 0 540 0C510 0 480 0 450 0C420 0 390 0 360 0C330 0 300 0 270 0C240 0 210 0 180 0C150 0 120 0 90 0C60 0 30 0 15 0L0 0Z">
        <animate attributeName="d"
                 values=" M0 105L15 106.8C30 108.7 60 112.3 90 118.3C120 124.3 150 132.7 180 132.7C210 132.7 240 124.3 270 118.2C300 112 330 108 360 106.3C390 104.7 420 105.3 450 115.5C480 125.7 510 145.3 540 149.5C570 153.7 600 142.3 630 133.2C660 124 690 117 720 124.8C750 132.7 780 155.3 810 158.7C840 162 870 146 885 138L900 130L900 0L885 0C870 0 840 0 810 0C780 0 750 0 720 0C690 0 660 0 630 0C600 0 570 0 540 0C510 0 480 0 450 0C420 0 390 0 360 0C330 0 300 0 270 0C240 0 210 0 180 0C150 0 120 0 90 0C60 0 30 0 15 0L0 0Z; M0 144L15 147.3C30 150.7 60 157.3 90 162.2C120 167 150 170 180 168.3C210 166.7 240 160.3 270 150C300 139.7 330 125.3 360 118.8C390 112.3 420 113.7 450 123C480 132.3 510 149.7 540 155.5C570 161.3 600 155.7 630 155.8C660 156 690 162 720 160.5C750 159 780 150 810 145.7C840 141.3 870 141.7 885 141.8L900 142L900 0L885 0C870 0 840 0 810 0C780 0 750 0 720 0C690 0 660 0 630 0C600 0 570 0 540 0C510 0 480 0 450 0C420 0 390 0 360 0C330 0 300 0 270 0C240 0 210 0 180 0C150 0 120 0 90 0C60 0 30 0 15 0L0 0Z; M0 148L15 148.8C30 149.7 60 151.3 90 146.3C120 141.3 150 129.7 180 133.3C210 137 240 156 270 156C300 156 330 137 360 128.7C390 120.3 420 122.7 450 119.5C480 116.3 510 107.7 540 112.7C570 117.7 600 136.3 630 144.3C660 152.3 690 149.7 720 153.8C750 158 780 169 810 170.8C840 172.7 870 165.3 885 161.7L900 158L900 0L885 0C870 0 840 0 810 0C780 0 750 0 720 0C690 0 660 0 630 0C600 0 570 0 540 0C510 0 480 0 450 0C420 0 390 0 360 0C330 0 300 0 270 0C240 0 210 0 180 0C150 0 120 0 90 0C60 0 30 0 15 0L0 0Z; M0 98L15 109.8C30 121.7 60 145.3 90 158.8C120 172.3 150 175.7 180 167.7C210 159.7 240 140.3 270 134.5C300 128.7 330 136.3 360 140.8C390 145.3 420 146.7 450 151.2C480 155.7 510 163.3 540 155.3C570 147.3 600 123.7 630 112.7C660 101.7 690 103.3 720 112.5C750 121.7 780 138.3 810 150C840 161.7 870 168.3 885 171.7L900 175L900 0L885 0C870 0 840 0 810 0C780 0 750 0 720 0C690 0 660 0 630 0C600 0 570 0 540 0C510 0 480 0 450 0C420 0 390 0 360 0C330 0 300 0 270 0C240 0 210 0 180 0C150 0 120 0 90 0C60 0 30 0 15 0L0 0Z; M0 105L15 106.8C30 108.7 60 112.3 90 118.3C120 124.3 150 132.7 180 132.7C210 132.7 240 124.3 270 118.2C300 112 330 108 360 106.3C390 104.7 420 105.3 450 115.5C480 125.7 510 145.3 540 149.5C570 153.7 600 142.3 630 133.2C660 124 690 117 720 124.8C750 132.7 780 155.3 810 158.7C840 162 870 146 885 138L900 130L900 0L885 0C870 0 840 0 810 0C780 0 750 0 720 0C690 0 660 0 630 0C600 0 570 0 540 0C510 0 480 0 450 0C420 0 390 0 360 0C330 0 300 0 270 0C240 0 210 0 180 0C150 0 120 0 90 0C60 0 30 0 15 0L0 0Z "
                 keyTimes="0; 0.25; 0.5; 0.75; 1" calcMode="linear" dur="20s" repeatCount="indefinite"></animate>
    </path>
    <path d="M0 40L15 42.3C30 44.7 60 49.3 90 59.8C120 70.3 150 86.7 180 86.8C210 87 240 71 270 71.7C300 72.3 330 89.7 360 90.8C390 92 420 77 450 73.5C480 70 510 78 540 77.3C570 76.7 600 67.3 630 62C660 56.7 690 55.3 720 56.2C750 57 780 60 810 64.2C840 68.3 870 73.7 885 76.3L900 79L900 0L885 0C870 0 840 0 810 0C780 0 750 0 720 0C690 0 660 0 630 0C600 0 570 0 540 0C510 0 480 0 450 0C420 0 390 0 360 0C330 0 300 0 270 0C240 0 210 0 180 0C150 0 120 0 90 0C60 0 30 0 15 0L0 0Z">
        <animate attributeName="d"
                 values=" M0 40L15 42.3C30 44.7 60 49.3 90 59.8C120 70.3 150 86.7 180 86.8C210 87 240 71 270 71.7C300 72.3 330 89.7 360 90.8C390 92 420 77 450 73.5C480 70 510 78 540 77.3C570 76.7 600 67.3 630 62C660 56.7 690 55.3 720 56.2C750 57 780 60 810 64.2C840 68.3 870 73.7 885 76.3L900 79L900 0L885 0C870 0 840 0 810 0C780 0 750 0 720 0C690 0 660 0 630 0C600 0 570 0 540 0C510 0 480 0 450 0C420 0 390 0 360 0C330 0 300 0 270 0C240 0 210 0 180 0C150 0 120 0 90 0C60 0 30 0 15 0L0 0Z; M0 77L15 74.2C30 71.3 60 65.7 90 61.5C120 57.3 150 54.7 180 61.5C210 68.3 240 84.7 270 93.3C300 102 330 103 360 104.7C390 106.3 420 108.7 450 108.7C480 108.7 510 106.3 540 105.3C570 104.3 600 104.7 630 105.5C660 106.3 690 107.7 720 102.7C750 97.7 780 86.3 810 81.2C840 76 870 77 885 77.5L900 78L900 0L885 0C870 0 840 0 810 0C780 0 750 0 720 0C690 0 660 0 630 0C600 0 570 0 540 0C510 0 480 0 450 0C420 0 390 0 360 0C330 0 300 0 270 0C240 0 210 0 180 0C150 0 120 0 90 0C60 0 30 0 15 0L0 0Z; M0 98L15 91.8C30 85.7 60 73.3 90 70.7C120 68 150 75 180 75.8C210 76.7 240 71.3 270 70.8C300 70.3 330 74.7 360 70.7C390 66.7 420 54.3 450 49.7C480 45 510 48 540 55.8C570 63.7 600 76.3 630 78C660 79.7 690 70.3 720 62.8C750 55.3 780 49.7 810 47.7C840 45.7 870 47.3 885 48.2L900 49L900 0L885 0C870 0 840 0 810 0C780 0 750 0 720 0C690 0 660 0 630 0C600 0 570 0 540 0C510 0 480 0 450 0C420 0 390 0 360 0C330 0 300 0 270 0C240 0 210 0 180 0C150 0 120 0 90 0C60 0 30 0 15 0L0 0Z; M0 81L15 77.5C30 74 60 67 90 61.2C120 55.3 150 50.7 180 50.3C210 50 240 54 270 60.2C300 66.3 330 74.7 360 74.7C390 74.7 420 66.3 450 69.5C480 72.7 510 87.3 540 89.5C570 91.7 600 81.3 630 76.3C660 71.3 690 71.7 720 74.7C750 77.7 780 83.3 810 85.3C840 87.3 870 85.7 885 84.8L900 84L900 0L885 0C870 0 840 0 810 0C780 0 750 0 720 0C690 0 660 0 630 0C600 0 570 0 540 0C510 0 480 0 450 0C420 0 390 0 360 0C330 0 300 0 270 0C240 0 210 0 180 0C150 0 120 0 90 0C60 0 30 0 15 0L0 0Z; M0 40L15 42.3C30 44.7 60 49.3 90 59.8C120 70.3 150 86.7 180 86.8C210 87 240 71 270 71.7C300 72.3 330 89.7 360 90.8C390 92 420 77 450 73.5C480 70 510 78 540 77.3C570 76.7 600 67.3 630 62C660 56.7 690 55.3 720 56.2C750 57 780 60 810 64.2C840 68.3 870 73.7 885 76.3L900 79L900 0L885 0C870 0 840 0 810 0C780 0 750 0 720 0C690 0 660 0 630 0C600 0 570 0 540 0C510 0 480 0 450 0C420 0 390 0 360 0C330 0 300 0 270 0C240 0 210 0 180 0C150 0 120 0 90 0C60 0 30 0 15 0L0 0Z "
                 keyTimes="0; 0.25; 0.5; 0.75; 1" calcMode="linear" dur="20s" repeatCount="indefinite"></animate>
    </path>
</svg>